<svg xmlns="http://www.w3.org/2000/svg" fill="none" viewBox="0 0 16 16">
  <path fill="#000" d="M12.34 4.54l.15-.23.26.16.12.08c.28.22.87.77 1 1.68.22-.04.44-.06.67-.06.53 0 .9.13 1.1.23l.1.06.07.04.2.16-.08.2a2.04 2.04 0 0 1-.47.73c-.29.3-.8.65-1.6.7h-.34c-.37.98-.87 2.08-1.7 3.07a7.08 7.08 0 0 1-1.74 1.5 7.94 7.94 0 0 1-2.55.96c-.65.12-1.3.18-1.96.18a6.84 6.84 0 0 1-3.51-.8 4.18 4.18 0 0 1-1.6-2.17A8.25 8.25 0 0 1 0 8.2a.52.52 0 0 1 .43-.5h10.6l.11-.03.14-.01c.26-.04.65-.1.92-.27a2.45 2.45 0 0 1-.27-1.88 3.3 3.3 0 0 1 .3-.8l.11-.2zM2.9 5.78h.03a.13.13 0 0 1 .08.09v1.4a.13.13 0 0 1-.08.08H1.48a.12.12 0 0 1-.12-.08v-1.4a.13.13 0 0 1 .08-.08H2.9zm1.94 0h.04a.13.13 0 0 1 .07.09l.01.04v1.36a.13.13 0 0 1-.08.08H3.42a.13.13 0 0 1-.11-.08l-.01-.04V5.91a.13.13 0 0 1 .1-.12h1.44zm1.97 0h.04a.13.13 0 0 1 .08.09v1.4a.13.13 0 0 1-.08.08H5.4a.12.12 0 0 1-.13-.08v-1.4a.13.13 0 0 1 .08-.08h1.45zm1.96 0h.03a.13.13 0 0 1 .08.09v1.36a.13.13 0 0 1-.08.12H7.36a.12.12 0 0 1-.12-.08V5.87a.13.13 0 0 1 .07-.08h1.46zm1.97 0h.03a.13.13 0 0 1 .08.09v1.36a.13.13 0 0 1-.08.12H9.33a.12.12 0 0 1-.13-.08v-1.4a.13.13 0 0 1 .08-.08h1.45zM4.84 3.9h.04a.13.13 0 0 1 .07.08v1.36a.13.13 0 0 1-.08.12H3.43a.13.13 0 0 1-.12-.08l-.01-.04V4.02a.13.13 0 0 1 .1-.12h1.44zm1.97 0h.04a.13.13 0 0 1 .08.08v1.36a.13.13 0 0 1-.08.12H5.4a.13.13 0 0 1-.13-.08v-1.4a.13.13 0 0 1 .08-.08h1.45zm1.95 0c.06 0 .1.03.12.08v1.36a.13.13 0 0 1-.08.12H7.36a.13.13 0 0 1-.12-.08V3.98a.13.13 0 0 1 .07-.08h1.46zm0-1.9c.06 0 .1.04.12.09v1.35a.13.13 0 0 1-.08.13H7.36a.12.12 0 0 1-.12-.08V2.1a.13.13 0 0 1 .08-.1h1.46z"/>
</svg>
