<svg xmlns="http://www.w3.org/2000/svg" viewBox="0 0 32 32">
  <path d="M30.03 15.14a3.82 3.82 0 0 0-1.65.24h.03c-.13.04-.33.04-.35.2.07.07.08.18.14.27.12.2.26.37.43.5.18.15.35.28.54.4.32.2.7.31 1 .52.19.11.37.26.56.39.09.06.15.17.27.21v-.02c-.06-.08-.08-.19-.14-.27l-.25-.24c-.24-.33-.53-.6-.85-.84h-.01c-.27-.19-.86-.44-.97-.75l-.01-.02c.22-.03.41-.07.6-.14l-.03.01c.29-.07.55-.06.84-.13l.4-.12v-.07c-.15-.15-.26-.36-.42-.5-.4-.36-.86-.7-1.33-1l-.05-.03c-.26-.16-.6-.27-.87-.41-.1-.05-.27-.08-.32-.16-.13-.19-.25-.4-.34-.62v-.02q-.38-.72-.7-1.46c-.14-.38-.28-.7-.44-1l.02.05a8.5 8.5 0 0 0-3.18-3.1L22.9 7c-.3-.15-.66-.27-1.04-.33h-.03l-.62-.04-.38-.3c-.47-.3-1.7-.95-2.05-.09-.23.55.33 1.08.52 1.36.16.18.3.38.42.6v.02c.07.15.08.3.14.45.15.45.3.82.46 1.18l-.02-.06c.1.2.2.37.31.53v-.02c.06.1.18.14.2.29-.08.18-.15.39-.19.6v.02a3.64 3.64 0 0 0 .25 2.84v-.02c.13.21.45.67.87.5.38-.16.3-.63.4-1.05.03-.1.01-.16.06-.23v.02c.12.23.24.46.34.7.3.43.66.8 1.07 1.1h.02c.2.16.36.42.6.51v-.02h-.01a4.33 4.33 0 0 1-.62-.66 10.7 10.7 0 0 1-.9-1.47l-.04-.06c-.13-.26-.25-.55-.36-.8-.05-.1-.05-.26-.13-.3a3.1 3.1 0 0 0-.4.54v.02c-.13.37-.21.8-.24 1.25v.01l-.03.02c-.27-.06-.36-.34-.46-.57a3.57 3.57 0 0 1-.07-2.26v.03c.06-.18.3-.73.2-.9-.05-.16-.21-.25-.3-.38-.11-.15-.21-.33-.3-.51v-.02c-.2-.47-.3-.99-.52-1.45a4.34 4.34 0 0 0-.42-.65c-.16-.19-.31-.4-.45-.63v-.02c-.05-.09-.1-.24-.04-.34.01-.06.06-.1.12-.1.1-.1.42.02.52.07.32.12.6.26.85.42h-.02c.12.08.25.24.4.28h.17c.27.06.57.01.82.09.46.15.86.35 1.22.58h-.02a7.5 7.5 0 0 1 2.59 2.8l.02.05c.1.2.14.37.23.57.18.4.4.83.57 1.22.17.43.37.8.6 1.14v-.01c.12.17.62.26.85.35.23.09.42.16.6.25l-.03-.01c.29.17.57.37.84.56.14.1.55.3.58.48zM18.3 22.45v.05c0 .56-.25 1.06-.64 1.4a2.52 2.52 0 0 1-1.74.56 3.45 3.45 0 0 1-1.97-.65h.01l.3-.6c.43.26.94.4 1.48.43h.1c.33 0 .63-.1.89-.28a.94.94 0 0 0 .37-.75v-.01c0-.42-.29-.77-.81-1.06l-1.47-.82c-.47-.3-.79-.82-.79-1.41v-.06-.06c0-.52.23-.98.6-1.3a2.2 2.2 0 0 1 1.52-.52h.03c.64 0 1.23.2 1.73.52h-.02l-.26.6c-.4-.19-.85-.3-1.33-.3h-.08c-.28 0-.54.1-.74.26-.19.16-.3.4-.3.66 0 .4.29.76.83 1.06l1.48.84c.49.28.8.8.8 1.4v.06zm2.07.53a4.18 4.18 0 0 1-.42-2.18v.01q0-2.6 1.59-2.6h.09c.47 0 .9.25 1.13.62a4.17 4.17 0 0 1 .42 2.17v-.02q0 2.63-1.59 2.63h-.08c-.48 0-.9-.24-1.13-.62zm4.12 1.55l-1.28-.62.31-.3v-.01a4.2 4.2 0 0 0 .82-2.83v.01q0-3.43-2.7-3.43h-.13c-.77 0-1.46.33-1.93.87a4.2 4.2 0 0 0-.8 2.82v-.01l-.02.34c0 .87.28 1.68.74 2.35v-.02a2.45 2.45 0 0 0 1.99.77h-.01.03c.31 0 .61-.04.9-.13h-.02l1.65.97.45-.77zm4.14-.16h-3.3v-6.91h1.12v6.06h2.18zm-15.4-5.1a15.6 15.6 0 0 1-1.91 5.65l.04-.08a2.49 2.49 0 0 1-1.97 1.34c-.27-.01-.5-.07-.73-.18h.02v-.6l.45.03h.08c.29 0 .55-.1.76-.28a1 1 0 0 0 .37-.76 5.03 5.03 0 0 0-.3-1.21v.03L8.8 19.27h1.13l.9 2.95c.17.41.26.9.26 1.4.49-1.26.85-2.73 1.04-4.26v-.1zm-5.03 5.1H7.06Q7 21.6 6.72 18.85l-1.77 5.52h-.88l-1.75-5.52H2.3q-.2 2.76-.25 5.52H1q.1-3.69.52-6.92h1.43l1.67 5.08h.01l1.68-5.08h1.37q.46 3.78.54 6.92zm13.3-16.5h-.01c-.12 0-.24.02-.35.05h.01v.02h.02l.27.34.19.4.02-.02a.46.46 0 0 0 .17-.42c-.05-.06-.06-.12-.1-.17-.05-.09-.16-.13-.22-.2z"/>
</svg>
