<svg xmlns="http://www.w3.org/2000/svg" viewBox="0 0 32 32">
  <path d="M32 16a16 16 0 1 1-32 0 16 16 0 0 1 32 0zM23 5.92a5.74 5.74 0 0 0-4.1 2.19 13.86 13.86 0 0 0-2.51 4.61c-1-.81-1.78-1.88-3.38-2.35a4.15 4.15 0 0 0-3.76.7 3.37 3.37 0 0 0-1.15 1.67c-.48 1.56.51 2.96.96 3.46l.99 1.06c.2.2.69.74.44 1.51-.25.85-1.26 1.39-2.3 1.07-.48-.14-1.14-.49-1-.98.07-.2.21-.34.29-.52.07-.14.1-.26.12-.32.2-.62-.06-1.43-.73-1.63-.62-.2-1.25-.04-1.5.76-.28.9.15 2.54 2.48 3.26 2.72.85 5.02-.63 5.35-2.57.2-1.2-.35-2.1-1.35-3.26l-.81-.9a1.48 1.48 0 0 1-.16-1.98c.44-.55 1.05-.78 2.06-.5 1.47.4 2.12 1.4 3.22 2.23a43.56 43.56 0 0 0-1.02 4.3l-.16 1c-.78 4.09-1.38 6.34-2.93 7.63-.31.22-.76.55-1.43.58-.35 0-.47-.24-.47-.35-.01-.24.2-.36.34-.47.2-.1.52-.3.5-.9-.03-.7-.62-1.32-1.47-1.3-.63.03-1.6.63-1.56 1.72.03 1.13 1.1 1.98 2.68 1.93.85-.03 2.75-.38 4.62-2.6 2.18-2.55 2.79-5.47 3.24-7.61l.52-2.82c.29.03.6.05.93.06 2.7.06 4.06-1.35 4.08-2.37.01-.62-.4-1.23-1-1.2-.5 0-.95.36-1.07.87-.12.56.87 1.08.1 1.58-.55.35-1.54.6-2.92.4l.25-1.4c.52-2.63 1.15-5.87 3.55-5.94.18-.01.82 0 .83.42 0 .14-.03.19-.2.5-.15.21-.23.47-.22.72.02.67.53 1.12 1.28 1.1.99-.04 1.27-1 1.26-1.5-.04-1.17-1.27-1.9-2.9-1.85z"/>
</svg>
