<svg xmlns="http://www.w3.org/2000/svg" viewBox="0 0 32 32">
  <path d="M0 16v16h32V0H0zm25.8-1.28c.8.2 1.42.57 2 1.16.3.31.72.9.76 1.03 0 .04-1.38.97-2.23 1.5-.03.01-.15-.12-.29-.32-.4-.6-.84-.86-1.5-.9-.97-.07-1.6.44-1.6 1.28 0 .21.05.42.14.6.22.45.62.71 1.86 1.25 2.29.98 3.27 1.63 3.88 2.56.68 1.03.83 2.67.37 3.9-.5 1.33-1.77 2.24-3.54 2.53-.55.1-1.85.09-2.44-.02a5.87 5.87 0 0 1-3.23-1.7 5.56 5.56 0 0 1-.84-1.23l.3-.19 1.18-.7.93-.52.19.28c.27.4.86.98 1.21 1.16 1.02.55 2.42.47 3.12-.15.28-.24.44-.6.4-.96 0-.37-.03-.54-.23-.81-.25-.36-.75-.66-2.2-1.28-1.64-.72-2.36-1.15-3-1.86-.4-.46-.71-1-.88-1.6a6.54 6.54 0 0 1-.06-2.04c.34-1.6 1.55-2.7 3.28-3.03.56-.1 1.88-.07 2.43.06zm-7.52 1.34v1.31h-4.16V29.2h-2.95V17.37H7.01V16.1c0-.72.02-1.3.04-1.32 0-.03 2.54-.04 5.62-.03l5.6.02z"/>
</svg>
