<?xml version="1.0" encoding="UTF-8" standalone="no"?>
<!-- Uploaded to: SVG Repo, www.svgrepo.com, Generator: SVG Repo Mixer Tools -->
  <svg aria-hidden="true" height="16" viewBox="0 0 16 16" width="16" xmlns="http://www.w3.org/2000/svg">
          <path d="M15.5 8.18c0-.5-.04-.99-.13-1.45H8v2.74h4.21c-.18 1-.74 1.84-1.57 2.4v2h2.54c1.49-1.37 2.32-3.4 2.32-5.69z" fill="#4285F4" />
          <path d="M8 16c2.16 0 3.97-.71 5.29-1.94l-2.54-2c-.7.47-1.6.75-2.75.75-2.11 0-3.9-1.43-4.54-3.34H.83v2.07A8 8 0 0 0 8 16z" fill="#34A853" />
          <path d="M3.46 9.47c-.16-.47-.25-.97-.25-1.47s.09-1 .25-1.47V4.46H.83A8 8 0 0 0 0 8c0 1.29.31 2.51.83 3.59l2.63-2.07z" fill="#FBBC05" />
          <path d="M8 3.18c1.18 0 2.24.41 3.08 1.21l2.25-2.25C11.96.81 10.16 0 8 0a8 8 0 0 0-7.17 4.46l2.63 2.07C4.1 4.61 5.89 3.18 8 3.18z" fill="#EA4335" />
        </svg>